<svg width="501" height="501" viewBox="0 0 501 501" fill="none" xmlns="http://www.w3.org/2000/svg">
<path opacity="0.02" d="M250.5 0C112.154 0 0 112.154 0 250.5C0 388.846 112.154 501 250.5 501C388.846 501 501 388.846 501 250.5H326.807C325.979 235.589 320.8 221.247 311.91 209.247C303.02 197.246 290.809 188.114 276.786 182.978C262.762 177.842 247.542 176.927 233.004 180.346C218.466 183.766 205.249 191.37 194.986 202.219C184.723 213.067 177.863 226.686 175.255 241.39C172.646 256.095 174.403 271.242 180.309 284.959C186.215 298.676 196.01 310.362 208.484 318.573C220.959 326.784 235.566 331.161 250.5 331.161H400.033C382.086 364.341 353.584 390.587 319.041 405.745C284.497 420.903 245.885 424.107 209.316 414.85C172.746 405.593 140.309 384.403 117.137 354.636C93.9661 324.868 81.3848 288.223 81.3848 250.5C81.3848 212.777 93.9661 176.132 117.137 146.364C140.309 116.597 172.746 95.4074 209.316 86.1504C245.885 76.8934 284.497 80.0975 319.041 95.2554C353.584 110.413 382.086 136.659 400.033 169.839H487.708C454.146 71.0618 360.625 0 250.5 0Z" fill="#8ECAE6"/>
</svg>
