<svg width="66" height="66" viewBox="0 0 66 66" fill="none" xmlns="http://www.w3.org/2000/svg">
<path d="M33 0C14.7748 0 0 14.7748 0 33C0 51.2252 14.7748 66 33 66C51.2252 66 66 51.2252 66 33H43.0525C42.9433 31.0356 42.2611 29.1463 41.0899 27.5654C39.9188 25.9846 38.3102 24.7815 36.4628 24.1049C34.6154 23.4282 32.6103 23.3077 30.6951 23.7582C28.78 24.2087 27.0388 25.2104 25.6868 26.6396C24.3347 28.0688 23.4311 29.8628 23.0874 31.7999C22.7438 33.7371 22.9753 35.7325 23.7533 37.5395C24.5313 39.3466 25.8217 40.886 27.465 41.9677C29.1083 43.0494 31.0326 43.6259 33 43.626H52.699C50.3346 47.997 46.58 51.4545 42.0293 53.4514C37.4787 55.4482 32.392 55.8703 27.5745 54.6508C22.757 53.4314 18.4838 50.64 15.4313 46.7185C12.3788 42.797 10.7213 37.9695 10.7213 33C10.7213 28.0305 12.3788 23.203 15.4313 19.2815C18.4838 15.36 22.757 12.5686 27.5745 11.3492C32.392 10.1297 37.4787 10.5518 42.0293 12.5486C46.58 14.5455 50.3346 18.003 52.699 22.374H64.249C59.8277 9.36144 47.5075 0 33 0Z" fill="white"/>
</svg>
